{"asset":{"version":"2.0","generator":"Babylon2Gltf2017","copyright":"2017 (c) BabylonJS"},"scene":0,"scenes":[{"nodes":[0]}],"nodes":[{"children":[1,2,3,4],"translation":[0.0,29.5918732,-58.51346],"rotation":[0.0,0.0,0.0,-1.0],"scale":[1.0,1.0,1.0],"name":"Glasses"},{"mesh":0,"translation":[0.0,-1.6281662,71.8991],"rotation":[-7.642742E-15,-8.742278E-08,-8.742278E-08,-1.0],"scale":[1.0,1.0,1.0],"name":"Frame"},{"mesh":1,"translation":[-68.9959641,6.002388,58.213913],"rotation":[0.0,0.0,0.0,-1.0],"scale":[1.0,1.0,1.0],"name":"RBranch"},{"mesh":2,"translation":[0.0,-1.6281662,79.23277],"rotation":[0.0,0.0,0.0,-1.0],"scale":[1.0,1.0,1.0],"name":"Lenses"},{"mesh":3,"translation":[69.01297,6.002388,58.2220039],"rotation":[0.0,0.0,0.0,-1.0],"scale":[1.0,1.0,1.0],"name":"LBranch"}],"meshes":[{"primitives":[{"attributes":{"POSITION":1,"NORMAL":2,"TEXCOORD_0":3},"indices":0,"mode":4,"material":0}],"name":"Frame"},{"primitives":[{"attributes":{"POSITION":5,"NORMAL":6,"TEXCOORD_0":7},"indices":4,"mode":4,"material":1}],"name":"RBranch"},{"primitives":[{"attributes":{"POSITION":9,"NORMAL":10,"TEXCOORD_0":11},"indices":8,"mode":4,"material":2}],"name":"Lenses"},{"primitives":[{"attributes":{"POSITION":13,"NORMAL":14,"TEXCOORD_0":15},"indices":12,"mode":4,"material":3}],"name":"LBranch"}],"accessors":[{"bufferView":0,"componentType":5123,"count":41538,"type":"SCALAR","name":"accessorIndices"},{"bufferView":1,"componentType":5126,"count":41538,"max":[72.52921,19.9350739,8.641317],"min":[-72.52919,-16.6605263,-15.25725],"type":"VEC3","name":"accessorPositions"},{"bufferView":1,"byteOffset":498456,"componentType":5126,"count":41538,"type":"VEC3","name":"accessorNormals"},{"bufferView":2,"componentType":5126,"count":41538,"type":"VEC2","name":"accessorUVs"},{"bufferView":0,"byteOffset":83076,"componentType":5123,"count":4920,"type":"SCALAR","name":"accessorIndices"},{"bufferView":1,"byteOffset":996912,"componentType":5126,"count":4920,"max":[17.5882378,1.72622681,1.22501373],"min":[-5.63446045,-24.309309,-138.754333],"type":"VEC3","name":"accessorPositions"},{"bufferView":1,"byteOffset":1055952,"componentType":5126,"count":4920,"type":"VEC3","name":"accessorNormals"},{"bufferView":2,"byteOffset":332304,"componentType":5126,"count":4920,"type":"VEC2","name":"accessorUVs"},{"bufferView":0,"byteOffset":92916,"componentType":5123,"count":3648,"type":"SCALAR","name":"accessorIndices"},{"bufferView":1,"byteOffset":1114992,"componentType":5126,"count":3648,"max":[64.25391,19.4991875,0.559324265],"min":[-64.25389,-16.31232,-11.4154415],"type":"VEC3","name":"accessorPositions"},{"bufferView":1,"byteOffset":1158768,"componentType":5126,"count":3648,"type":"VEC3","name":"accessorNormals"},{"bufferView":2,"byteOffset":371664,"componentType":5126,"count":3648,"type":"VEC2","name":"accessorUVs"},{"bufferView":0,"byteOffset":100212,"componentType":5123,"count":4920,"type":"SCALAR","name":"accessorIndices"},{"bufferView":1,"byteOffset":1202544,"componentType":5126,"count":4920,"max":[5.61745453,1.72621918,1.21692657],"min":[-17.6052437,-24.3093014,-138.762421],"type":"VEC3","name":"accessorPositions"},{"bufferView":1,"byteOffset":1261584,"componentType":5126,"count":4920,"type":"VEC3","name":"accessorNormals"},{"bufferView":2,"byteOffset":400848,"componentType":5126,"count":4920,"type":"VEC2","name":"accessorUVs"}],"bufferViews":[{"buffer":0,"byteLength":110052,"name":"bufferViewScalar"},{"buffer":0,"byteOffset":110052,"byteLength":1320624,"byteStride":12,"name":"bufferViewFloatVec3"},{"buffer":0,"byteOffset":1430676,"byteLength":440208,"byteStride":8,"name":"bufferViewFloatVec2"}],"buffers":[{"uri":"SKU25390001.bin","byteLength":1870884}],"materials":[{"pbrMetallicRoughness":{"baseColorFactor":[1.0,1.0,1.0,1.0],"baseColorTexture":{"index":0},"metallicFactor":0.661458254,"roughnessFactor":0.5},"emissiveFactor":[0.0,0.0,0.0],"alphaMode":"OPAQUE","name":"Frame"},{"pbrMetallicRoughness":{"baseColorFactor":[1.0,1.0,1.0,1.0],"baseColorTexture":{"index":1},"metallicFactor":0.661458254,"roughnessFactor":0.5},"emissiveFactor":[0.0,0.0,0.0],"alphaMode":"OPAQUE","name":"RBranch"},{"pbrMetallicRoughness":{"baseColorFactor":[1.0,1.0,1.0,1.0],"baseColorTexture":{"index":2},"metallicFactor":0.895833135,"roughnessFactor":0.5},"emissiveFactor":[0.0,0.0,0.0],"alphaMode":"BLEND","name":"Lenses"},{"pbrMetallicRoughness":{"baseColorFactor":[1.0,1.0,1.0,1.0],"baseColorTexture":{"index":3},"metallicFactor":0.661458254,"roughnessFactor":0.5},"emissiveFactor":[0.0,0.0,0.0],"alphaMode":"OPAQUE","name":"LBranch"}],"textures":[{"sampler":0,"source":0,"name":"Frame_baseColor.jpg"},{"sampler":1,"source":1,"name":"RBranch_baseColor.jpg"},{"sampler":2,"source":2,"name":"Lenses_baseColor.png"},{"sampler":3,"source":3,"name":"LBranch_baseColor.jpg"}],"images":[{"uri":"Frame_baseColor.jpg"},{"uri":"RBranch_baseColor.jpg"},{"uri":"Lenses_baseColor.png"},{"uri":"LBranch_baseColor.jpg"}],"samplers":[{"magFilter":9729,"minFilter":9987,"wrapS":10497,"wrapT":10497},{"magFilter":9729,"minFilter":9987,"wrapS":10497,"wrapT":10497},{"magFilter":9729,"minFilter":9987,"wrapS":10497,"wrapT":10497},{"magFilter":9729,"minFilter":9987,"wrapS":10497,"wrapT":10497}]}