{"asset":{"version":"2.0","generator":"Babylon2Gltf2017","copyright":"2017 (c) BabylonJS"},"scene":0,"scenes":[{"nodes":[0]}],"nodes":[{"children":[1,2,3,4],"translation":[0.0,18.1075172,0.414100647],"rotation":[0.0,0.0,0.0,-1.0],"scale":[1.0,1.0,1.0],"name":"Glasses"},{"mesh":0,"translation":[-3.637979E-12,-16.2924271,71.24375],"rotation":[0.0,0.0,0.0,-1.0],"scale":[1.0,1.0,1.0],"name":"Lenses"},{"mesh":1,"translation":[60.1737862,4.76899338,48.4502373],"rotation":[0.0,0.0,0.0,-1.0],"scale":[1.0,1.0,1.0],"name":"LBranch"},{"mesh":2,"translation":[-60.2535248,4.76898956,48.45023],"rotation":[0.0,0.0,0.0,-1.0],"scale":[1.0,1.0,1.0],"name":"RBranch"},{"mesh":3,"translation":[-3.637979E-12,-16.2924271,71.67058],"rotation":[0.0,0.0,0.0,-1.0],"scale":[1.0,1.0,1.0],"name":"Frame"}],"meshes":[{"primitives":[{"attributes":{"POSITION":1,"NORMAL":2,"TEXCOORD_0":3},"indices":0,"mode":4,"material":0}],"name":"Lenses"},{"primitives":[{"attributes":{"POSITION":5,"NORMAL":6,"TEXCOORD_0":7,"TEXCOORD_1":8},"indices":4,"mode":4,"material":1}],"name":"LBranch"},{"primitives":[{"attributes":{"POSITION":10,"NORMAL":11,"TEXCOORD_0":12,"TEXCOORD_1":13},"indices":9,"mode":4,"material":2}],"name":"RBranch"},{"primitives":[{"attributes":{"POSITION":15,"NORMAL":16,"TEXCOORD_0":17,"TEXCOORD_1":18},"indices":14,"mode":4,"material":3}],"name":"Frame"}],"accessors":[{"bufferView":0,"componentType":5123,"count":1152,"type":"SCALAR","name":"accessorIndices"},{"bufferView":1,"componentType":5126,"count":1152,"max":[62.01099,33.44471,1.34506226],"min":[-62.01099,-0.8316542,-11.2022743],"type":"VEC3","name":"accessorPositions"},{"bufferView":1,"byteOffset":13824,"componentType":5126,"count":1152,"type":"VEC3","name":"accessorNormals"},{"bufferView":2,"componentType":5126,"count":1152,"type":"VEC2","name":"accessorUVs"},{"bufferView":0,"byteOffset":2304,"componentType":5123,"count":7002,"type":"SCALAR","name":"accessorIndices"},{"bufferView":1,"byteOffset":27648,"componentType":5126,"count":7002,"max":[6.61016464,4.513874,2.71572113],"min":[-11.75547,-23.1277466,-123.050232],"type":"VEC3","name":"accessorPositions"},{"bufferView":1,"byteOffset":111672,"componentType":5126,"count":7002,"type":"VEC3","name":"accessorNormals"},{"bufferView":2,"byteOffset":9216,"componentType":5126,"count":7002,"type":"VEC2","name":"accessorUVs"},{"bufferView":2,"byteOffset":65232,"componentType":5126,"count":7002,"type":"VEC2","name":"accessorUV2s"},{"bufferView":0,"byteOffset":16308,"componentType":5123,"count":7002,"type":"SCALAR","name":"accessorIndices"},{"bufferView":1,"byteOffset":195696,"componentType":5126,"count":7002,"max":[11.8352089,4.51388168,2.71569443],"min":[-6.530426,-23.1277676,-123.050217],"type":"VEC3","name":"accessorPositions"},{"bufferView":1,"byteOffset":279720,"componentType":5126,"count":7002,"type":"VEC3","name":"accessorNormals"},{"bufferView":2,"byteOffset":121248,"componentType":5126,"count":7002,"type":"VEC2","name":"accessorUVs"},{"bufferView":2,"byteOffset":177264,"componentType":5126,"count":7002,"type":"VEC2","name":"accessorUV2s"},{"bufferView":0,"byteOffset":30312,"componentType":5123,"count":12120,"type":"SCALAR","name":"accessorIndices"},{"bufferView":1,"byteOffset":363744,"componentType":5126,"count":12120,"max":[66.80195,34.651207,2.92942047],"min":[-66.80195,-2.03311038,-24.4913635],"type":"VEC3","name":"accessorPositions"},{"bufferView":1,"byteOffset":509184,"componentType":5126,"count":12120,"type":"VEC3","name":"accessorNormals"},{"bufferView":2,"byteOffset":233280,"componentType":5126,"count":12120,"type":"VEC2","name":"accessorUVs"},{"bufferView":2,"byteOffset":330240,"componentType":5126,"count":12120,"type":"VEC2","name":"accessorUV2s"}],"bufferViews":[{"buffer":0,"byteLength":54552,"name":"bufferViewScalar"},{"buffer":0,"byteOffset":54552,"byteLength":654624,"byteStride":12,"name":"bufferViewFloatVec3"},{"buffer":0,"byteOffset":709176,"byteLength":427200,"byteStride":8,"name":"bufferViewFloatVec2"}],"buffers":[{"uri":"SKU25262087.bin","byteLength":1136376}],"materials":[{"pbrMetallicRoughness":{"baseColorFactor":[1.0,1.0,1.0,1.0],"baseColorTexture":{"index":0},"metallicFactor":0.895833135,"roughnessFactor":0.3},"emissiveFactor":[0.0,0.0,0.0],"alphaMode":"BLEND","name":"Lenses"},{"pbrMetallicRoughness":{"baseColorFactor":[1.0,1.0,1.0,1.0],"baseColorTexture":{"index":1},"metallicFactor":0.895833135,"roughnessFactor":0.400000036},"emissiveFactor":[0.0,0.0,0.0],"alphaMode":"BLEND","name":"Lbranch"},{"pbrMetallicRoughness":{"baseColorFactor":[1.0,1.0,1.0,1.0],"baseColorTexture":{"index":2},"metallicFactor":0.895833135,"roughnessFactor":0.400000036},"emissiveFactor":[0.0,0.0,0.0],"alphaMode":"BLEND","name":"Rbranch"},{"pbrMetallicRoughness":{"baseColorFactor":[1.0,1.0,1.0,1.0],"baseColorTexture":{"index":3},"metallicFactor":0.895833135,"roughnessFactor":0.400000036},"emissiveFactor":[0.0,0.0,0.0],"alphaMode":"BLEND","name":"Frame"}],"textures":[{"sampler":0,"source":0,"name":"Lenses_baseColor.png"},{"sampler":1,"source":1,"name":"Lbranch_baseColor.png"},{"sampler":2,"source":2,"name":"Rbranch_baseColor.png"},{"sampler":3,"source":3,"name":"Frame_baseColor.png"}],"images":[{"uri":"Lenses_baseColor.png"},{"uri":"Lbranch_baseColor.png"},{"uri":"Rbranch_baseColor.png"},{"uri":"Frame_baseColor.png"}],"samplers":[{"magFilter":9729,"minFilter":9987,"wrapS":10497,"wrapT":10497},{"magFilter":9729,"minFilter":9987,"wrapS":10497,"wrapT":10497},{"magFilter":9729,"minFilter":9987,"wrapS":10497,"wrapT":10497},{"magFilter":9729,"minFilter":9987,"wrapS":10497,"wrapT":10497}]}